<svg id="Capa_1" enable-background="new 0 0 509.063 509.063" height="512" viewBox="0 0 509.063 509.063" width="512" xmlns="http://www.w3.org/2000/svg"><g><path d="m224.531 434.063v75h30l15-37.5-15-37.5-15-14.531z" fill="#a05e4e"/><path d="m284.531 434.063-15-14.531-15 14.531v75h30c0-20.195 0-63.237 0-75z" fill="#71473b"/><path d="m238.281 100.531-140.75 28-20.835 26.891c1.628 15.459 27.703 263.182 29.331 278.641h148.504l15-144.266-15-144.266z" fill="#ff4f75"/><path d="m432.366 155.422-22.334-39.891-155.5 29.999v288.532h148.504c1.627-15.459 27.703-263.18 29.33-278.64z" fill="#cd2c7c"/><path d="m108.537 134.063h115.994c11.495 0 22.013 4.317 30 11.468l15-54.703-15-54.703-81 38.938z" fill="#f9f0f1"/><path d="m269.531 179.063c0 16.568 13.431 30 30 30 16.568 0 30-13.431 30-30 0-24.852 20.146-45 45-45h25.994l-65.994-61-80-36.938v109.405c4.683 4.192 8.484 9.351 11.088 15.161 4.246 9.475 3.792 17.276 3.912 18.372z" fill="#e1def1"/><path d="m6.175 166.606c5.845 8.713 10.868 16.2 16.713 24.913 8.4-5.635 225.198-151.07 231.644-155.394l15-18.063-15.001-18.062c-13.8 9.258-234.556 157.349-248.356 166.606z" fill="#51609c"/><path d="m486.175 191.519c5.845-8.713 10.868-16.2 16.713-24.913-13.8-9.257-234.557-157.348-248.357-166.606v36.125c42.054 28.211 173.349 116.288 231.644 155.394z" fill="#3c4d85"/><path d="m194.531 314.063c0 33.083 26.915 60 60 60l15-60-15-60c-33.083 0-60 26.915-60 60z" fill="#51609c"/><path d="m314.531 314.063c0-33.083-26.915-60-60-60v120c33.083 0 60-26.916 60-60z" fill="#3c4d85"/></g></svg>